<svg viewBox="0 0 64 64" xmlns="http://www.w3.org/2000/svg" role="img" aria-label="Placar Guru logo">
  <defs>
    <linearGradient id="pgGrad" x1="0" y1="0" x2="1" y2="1">
      <stop offset="0%" stop-color="#2563eb" />
      <stop offset="50%" stop-color="#22d3ee" />
      <stop offset="100%" stop-color="#bfff3b" />
    </linearGradient>
  </defs>
  <rect x="2" y="2" width="60" height="60" rx="16" fill="url(#pgGrad)" />
  <path d="M14 12h36l-3 31L32 54l-15-11-3-31z" fill="rgba(12,20,38,0.18)" stroke="rgba(255,255,255,0.7)" stroke-width="1.2" />
  <rect x="18" y="30" width="6" height="14" rx="2" fill="rgba(12,20,38,0.22)" />
  <rect x="26" y="26" width="6" height="18" rx="2" fill="rgba(12,20,38,0.22)" />
  <rect x="34" y="34" width="6" height="10" rx="2" fill="rgba(12,20,38,0.22)" />
  <rect x="42" y="22" width="6" height="22" rx="2" fill="rgba(12,20,38,0.22)" />
  <circle cx="34.5" cy="21.5" r="8" fill="#f8fafc" stroke="rgba(15,23,42,0.35)" stroke-width="1.1" />
  <path d="M28 20c2.6 1.2 5.2 1.2 7.8 0l2.7 3.2-2.2 4.8h-4.8L29.2 23z" fill="none" stroke="rgba(15,23,42,0.35)" stroke-width="1.1" />
  <circle cx="34.5" cy="21.5" r="3.4" fill="rgba(191,255,59,0.92)" />
</svg>
